<?xml version="1.0" encoding="UTF-8" standalone="no"?>
<!DOCTYPE svg PUBLIC "-//W3C//DTD SVG 1.1//EN"
 "http://www.w3.org/Graphics/SVG/1.1/DTD/svg11.dtd">
<!-- Generated by graphviz version 2.42.4 (0)
 -->
<!-- Title: enarx_architecture Pages: 1 -->
<svg width="723pt" height="423pt"
 viewBox="0.00 0.00 723.29 423.00" xmlns="http://www.w3.org/2000/svg" xmlns:xlink="http://www.w3.org/1999/xlink">
<g id="graph0" class="graph" transform="scale(1 1) rotate(0) translate(4 419)">
<title>enarx_architecture</title>
<polygon fill="white" stroke="transparent" points="-4,4 -4,-419 719.29,-419 719.29,4 -4,4"/>
<g id="clust1" class="cluster">
<title>cluster_tee_kvm</title>
<polygon fill="none" stroke="black" points="8,-8 8,-227 182,-227 182,-8 8,-8"/>
<text text-anchor="middle" x="95" y="-211.8" font-family="Times,serif" font-size="14.00">KVM &#45; no TEE</text>
</g>
<g id="clust2" class="cluster">
<title>cluster_tee_sev</title>
<polygon fill="none" stroke="black" points="190,-8 190,-227 364,-227 364,-8 190,-8"/>
<text text-anchor="middle" x="277" y="-211.8" font-family="Times,serif" font-size="14.00">SEV Keep</text>
</g>
<g id="clust3" class="cluster">
<title>cluster_tee_sgx</title>
<polygon fill="none" stroke="black" points="372,-8 372,-227 546,-227 546,-8 372,-8"/>
<text text-anchor="middle" x="459" y="-211.8" font-family="Times,serif" font-size="14.00">SGX Keep</text>
</g>
<!-- client -->
<g id="node1" class="node">
<title>client</title>
<ellipse fill="none" stroke="black" cx="368" cy="-397" rx="36.29" ry="18"/>
<text text-anchor="middle" x="368" y="-393.3" font-family="Times,serif" font-size="14.00">client</text>
</g>
<!-- enarx_keepmgr -->
<g id="node2" class="node">
<title>enarx_keepmgr</title>
<ellipse fill="none" stroke="black" cx="368" cy="-325" rx="80.69" ry="18"/>
<text text-anchor="middle" x="368" y="-321.3" font-family="Times,serif" font-size="14.00">enarx&#45;keepmgr</text>
</g>
<!-- client&#45;&gt;enarx_keepmgr -->
<g id="edge1" class="edge">
<title>client&#45;&gt;enarx_keepmgr</title>
<path fill="none" stroke="black" d="M368,-378.7C368,-370.98 368,-361.71 368,-353.11"/>
<polygon fill="black" stroke="black" points="371.5,-353.1 368,-343.1 364.5,-353.1 371.5,-353.1"/>
</g>
<!-- enarx_keepldr -->
<g id="node3" class="node">
<title>enarx_keepldr</title>
<ellipse fill="none" stroke="black" cx="368" cy="-253" rx="74.99" ry="18"/>
<text text-anchor="middle" x="368" y="-249.3" font-family="Times,serif" font-size="14.00">enarx&#45;keepldr</text>
</g>
<!-- enarx_keepmgr&#45;&gt;enarx_keepldr -->
<g id="edge2" class="edge">
<title>enarx_keepmgr&#45;&gt;enarx_keepldr</title>
<path fill="none" stroke="black" d="M368,-306.7C368,-298.98 368,-289.71 368,-281.11"/>
<polygon fill="black" stroke="black" points="371.5,-281.1 368,-271.1 364.5,-281.1 371.5,-281.1"/>
</g>
<!-- enarx_wasmldr_nil -->
<g id="node4" class="node">
<title>enarx_wasmldr_nil</title>
<ellipse fill="none" stroke="black" cx="636" cy="-178" rx="79.09" ry="18"/>
<text text-anchor="middle" x="636" y="-174.3" font-family="Times,serif" font-size="14.00">enarx&#45;wasmldr</text>
</g>
<!-- enarx_keepldr&#45;&gt;enarx_wasmldr_nil -->
<g id="edge3" class="edge">
<title>enarx_keepldr&#45;&gt;enarx_wasmldr_nil</title>
<path fill="none" stroke="black" d="M440.28,-248.28C474.26,-244.97 514.91,-238.74 550,-227 568.71,-220.74 588.02,-210.38 603.59,-200.88"/>
<polygon fill="black" stroke="black" points="605.68,-203.7 612.29,-195.42 601.96,-197.77 605.68,-203.7"/>
</g>
<!-- enarx_wasmldr_kvm -->
<g id="node5" class="node">
<title>enarx_wasmldr_kvm</title>
<ellipse fill="none" stroke="black" cx="95" cy="-178" rx="79.09" ry="18"/>
<text text-anchor="middle" x="95" y="-174.3" font-family="Times,serif" font-size="14.00">enarx&#45;wasmldr</text>
</g>
<!-- enarx_keepldr&#45;&gt;enarx_wasmldr_kvm -->
<g id="edge4" class="edge">
<title>enarx_keepldr&#45;&gt;enarx_wasmldr_kvm</title>
<path fill="none" stroke="black" d="M295.84,-247.9C261.89,-244.51 221.22,-238.32 186,-227 166.06,-220.59 145.29,-209.98 128.63,-200.36"/>
<polygon fill="black" stroke="black" points="130.23,-197.24 119.84,-195.15 126.66,-203.26 130.23,-197.24"/>
</g>
<!-- enarx_wasmldr_sev -->
<g id="node6" class="node">
<title>enarx_wasmldr_sev</title>
<ellipse fill="none" stroke="black" cx="277" cy="-178" rx="79.09" ry="18"/>
<text text-anchor="middle" x="277" y="-174.3" font-family="Times,serif" font-size="14.00">enarx&#45;wasmldr</text>
</g>
<!-- enarx_keepldr&#45;&gt;enarx_wasmldr_sev -->
<g id="edge5" class="edge">
<title>enarx_keepldr&#45;&gt;enarx_wasmldr_sev</title>
<path fill="none" stroke="black" d="M347.35,-235.44C335.02,-225.54 319.17,-212.83 305.64,-201.98"/>
<polygon fill="black" stroke="black" points="307.56,-199.03 297.57,-195.5 303.18,-204.49 307.56,-199.03"/>
</g>
<!-- enarx_wasmldr_sgx -->
<g id="node7" class="node">
<title>enarx_wasmldr_sgx</title>
<ellipse fill="none" stroke="black" cx="459" cy="-178" rx="79.09" ry="18"/>
<text text-anchor="middle" x="459" y="-174.3" font-family="Times,serif" font-size="14.00">enarx&#45;wasmldr</text>
</g>
<!-- enarx_keepldr&#45;&gt;enarx_wasmldr_sgx -->
<g id="edge6" class="edge">
<title>enarx_keepldr&#45;&gt;enarx_wasmldr_sgx</title>
<path fill="none" stroke="black" d="M388.65,-235.44C400.98,-225.54 416.83,-212.83 430.36,-201.98"/>
<polygon fill="black" stroke="black" points="432.82,-204.49 438.43,-195.5 428.44,-199.03 432.82,-204.49"/>
</g>
<!-- wasmtime_nil -->
<g id="node8" class="node">
<title>wasmtime_nil</title>
<ellipse fill="none" stroke="blue" cx="636" cy="-106" rx="58.49" ry="18"/>
<text text-anchor="middle" x="636" y="-102.3" font-family="Times,serif" font-size="14.00">wasmtime</text>
</g>
<!-- enarx_wasmldr_nil&#45;&gt;wasmtime_nil -->
<g id="edge7" class="edge">
<title>enarx_wasmldr_nil&#45;&gt;wasmtime_nil</title>
<path fill="none" stroke="black" d="M636,-159.7C636,-151.98 636,-142.71 636,-134.11"/>
<polygon fill="black" stroke="black" points="639.5,-134.1 636,-124.1 632.5,-134.1 639.5,-134.1"/>
</g>
<!-- wasmtime_kvm -->
<g id="node9" class="node">
<title>wasmtime_kvm</title>
<ellipse fill="none" stroke="blue" cx="95" cy="-106" rx="58.49" ry="18"/>
<text text-anchor="middle" x="95" y="-102.3" font-family="Times,serif" font-size="14.00">wasmtime</text>
</g>
<!-- enarx_wasmldr_kvm&#45;&gt;wasmtime_kvm -->
<g id="edge9" class="edge">
<title>enarx_wasmldr_kvm&#45;&gt;wasmtime_kvm</title>
<path fill="none" stroke="black" d="M95,-159.7C95,-151.98 95,-142.71 95,-134.11"/>
<polygon fill="black" stroke="black" points="98.5,-134.1 95,-124.1 91.5,-134.1 98.5,-134.1"/>
</g>
<!-- wasmtime_sgx -->
<g id="node11" class="node">
<title>wasmtime_sgx</title>
<ellipse fill="none" stroke="blue" cx="277" cy="-106" rx="58.49" ry="18"/>
<text text-anchor="middle" x="277" y="-102.3" font-family="Times,serif" font-size="14.00">wasmtime</text>
</g>
<!-- enarx_wasmldr_sev&#45;&gt;wasmtime_sgx -->
<g id="edge11" class="edge">
<title>enarx_wasmldr_sev&#45;&gt;wasmtime_sgx</title>
<path fill="none" stroke="black" d="M277,-159.7C277,-151.98 277,-142.71 277,-134.11"/>
<polygon fill="black" stroke="black" points="280.5,-134.1 277,-124.1 273.5,-134.1 280.5,-134.1"/>
</g>
<!-- wasmtime_sev -->
<g id="node10" class="node">
<title>wasmtime_sev</title>
<ellipse fill="none" stroke="blue" cx="459" cy="-106" rx="58.49" ry="18"/>
<text text-anchor="middle" x="459" y="-102.3" font-family="Times,serif" font-size="14.00">wasmtime</text>
</g>
<!-- enarx_wasmldr_sgx&#45;&gt;wasmtime_sev -->
<g id="edge13" class="edge">
<title>enarx_wasmldr_sgx&#45;&gt;wasmtime_sev</title>
<path fill="none" stroke="black" d="M459,-159.7C459,-151.98 459,-142.71 459,-134.11"/>
<polygon fill="black" stroke="black" points="462.5,-134.1 459,-124.1 455.5,-134.1 462.5,-134.1"/>
</g>
<!-- workload_nil -->
<g id="node12" class="node">
<title>workload_nil</title>
<ellipse fill="none" stroke="green" cx="636" cy="-34" rx="53.09" ry="18"/>
<text text-anchor="middle" x="636" y="-30.3" font-family="Times,serif" font-size="14.00">workload</text>
</g>
<!-- wasmtime_nil&#45;&gt;workload_nil -->
<g id="edge8" class="edge">
<title>wasmtime_nil&#45;&gt;workload_nil</title>
<path fill="none" stroke="black" d="M636,-87.7C636,-79.98 636,-70.71 636,-62.11"/>
<polygon fill="black" stroke="black" points="639.5,-62.1 636,-52.1 632.5,-62.1 639.5,-62.1"/>
</g>
<!-- workload_kvm -->
<g id="node13" class="node">
<title>workload_kvm</title>
<ellipse fill="none" stroke="green" cx="95" cy="-34" rx="53.09" ry="18"/>
<text text-anchor="middle" x="95" y="-30.3" font-family="Times,serif" font-size="14.00">workload</text>
</g>
<!-- wasmtime_kvm&#45;&gt;workload_kvm -->
<g id="edge10" class="edge">
<title>wasmtime_kvm&#45;&gt;workload_kvm</title>
<path fill="none" stroke="black" d="M95,-87.7C95,-79.98 95,-70.71 95,-62.11"/>
<polygon fill="black" stroke="black" points="98.5,-62.1 95,-52.1 91.5,-62.1 98.5,-62.1"/>
</g>
<!-- workload_sev -->
<g id="node14" class="node">
<title>workload_sev</title>
<ellipse fill="none" stroke="green" cx="459" cy="-34" rx="53.09" ry="18"/>
<text text-anchor="middle" x="459" y="-30.3" font-family="Times,serif" font-size="14.00">workload</text>
</g>
<!-- wasmtime_sev&#45;&gt;workload_sev -->
<g id="edge14" class="edge">
<title>wasmtime_sev&#45;&gt;workload_sev</title>
<path fill="none" stroke="black" d="M459,-87.7C459,-79.98 459,-70.71 459,-62.11"/>
<polygon fill="black" stroke="black" points="462.5,-62.1 459,-52.1 455.5,-62.1 462.5,-62.1"/>
</g>
<!-- workload_sgx -->
<g id="node15" class="node">
<title>workload_sgx</title>
<ellipse fill="none" stroke="green" cx="277" cy="-34" rx="53.09" ry="18"/>
<text text-anchor="middle" x="277" y="-30.3" font-family="Times,serif" font-size="14.00">workload</text>
</g>
<!-- wasmtime_sgx&#45;&gt;workload_sgx -->
<g id="edge12" class="edge">
<title>wasmtime_sgx&#45;&gt;workload_sgx</title>
<path fill="none" stroke="black" d="M277,-87.7C277,-79.98 277,-70.71 277,-62.11"/>
<polygon fill="black" stroke="black" points="280.5,-62.1 277,-52.1 273.5,-62.1 280.5,-62.1"/>
</g>
</g>
</svg>
